# xmcd
#
# Track frame offsets:
#	150
#	16980
#	37470
#	50332
#	72417
#	90852
#	94872
#	128600
#	152670
#	171255
#	188772
#	204915
#
# Disc length: 3122 seconds
#
# Revision: 1
# Processed by: cddbd v1.5PL3 Copyright (c) Steve Scherf et al.
# Submitted via: CDex 1.50Beta5
#
DISCID=980c300c
DTITLE=Frower Companyz - 怒りのBONGO
DYEAR=1900
DGENRE=Pop
TTITLE0=NO BLOOD MAN
TTITLE1=センチメンタルエンジン
TTITLE2=NO WAY OUT
TTITLE3=恍惚のブギ
TTITLE4=東京ヌードポエム
TTITLE5=怒りのBONGO
TTITLE6=たらちね
TTITLE7=星の旅人
TTITLE8=BELLBOTTOM JACK
TTITLE9=NO MERCY
TTITLE10=MILK SOUL BLUES
TTITLE11=JUMP
EXTD=
EXTT0=
EXTT1=
EXTT2=
EXTT3=
EXTT4=
EXTT5=
EXTT6=
EXTT7=
EXTT8=
EXTT9=
EXTT10=
EXTT11=
PLAYORDER=
